# xmcd
#
# Track frame offsets:
#	150
#	16871
#	29118
#	44364
#	57577
#	73604
#	89903
#	104225
#	119016
#	132792
#	147965
#	161942
#	185578
#
# Disc length: 2643 seconds
#
# Revision: 1
# Processed by: cddbd v1.5.2PL0 Copyright (c) Steve Scherf et al.
# Submitted via: audiograbber 1.83.01
#
DISCID=d20a510d
DTITLE=Melanie Denard  - Dare To Live
DYEAR=2009
DGENRE=Country
TTITLE0=Something I Never Thought I'd Say
TTITLE1=Cure For You 
TTITLE2=Bourbon 
TTITLE3=All I Ever Did Was Love You
TTITLE4=Tumblin' Down 
TTITLE5=I'll Try Anything 
TTITLE6=Dare To Live 
TTITLE7=Tryin' To Be Me 
TTITLE8=A Lot To Show From Loving You
TTITLE9=A Million and One 
TTITLE10=Baby: You're Back 
TTITLE11=Richest One 
TTITLE12=Son Of A Preacher Man
EXTD=
EXTT0=
EXTT1=
EXTT2=
EXTT3=
EXTT4=
EXTT5=
EXTT6=
EXTT7=
EXTT8=
EXTT9=
EXTT10=
EXTT11=
EXTT12=
PLAYORDER=
